<svg width="39" height="35" viewBox="0 0 39 35" fill="none" xmlns="http://www.w3.org/2000/svg">
<path d="M19.6254 15.2146C13.6154 15.2146 5.09428 24.4625 5.09428 30.3001C5.09428 32.9293 7.12334 34.5 10.5238 34.5C14.2201 34.5 16.6609 32.6106 19.6254 32.6106C22.6156 32.6106 25.0632 34.5 28.727 34.5C32.1274 34.5 34.1565 32.9293 34.1565 30.3001C34.1565 24.4625 25.6353 15.2146 19.6254 15.2146ZM8.47882 14.2646C7.69171 11.6543 5.26684 9.96383 3.06295 10.4882C0.85907 11.0125 -0.289038 13.5535 0.498063 16.1638C1.28516 18.7741 3.71004 20.4646 5.91392 19.9403C8.11781 19.4159 9.26592 16.8749 8.47882 14.2646ZM14.8907 12.6992C17.2323 12.086 18.4039 8.93704 17.5078 5.66605C16.6117 2.39506 13.987 0.241276 11.6454 0.854492C9.30376 1.46771 8.13219 4.61665 9.02827 7.88764C9.92436 11.1586 12.5498 13.3132 14.8907 12.6992ZM36.187 10.4889C33.9832 9.96459 31.559 11.6551 30.7712 14.2654C29.9841 16.8757 31.1322 19.4167 33.3361 19.941C35.54 20.4653 37.9641 18.7749 38.7519 16.1645C39.539 13.5542 38.3909 11.0132 36.187 10.4889ZM24.3601 12.6992C26.7017 13.3124 29.3264 11.1586 30.2225 7.88764C31.1186 4.61665 29.947 1.46846 27.6054 0.854492C25.2637 0.240522 22.6391 2.39506 21.743 5.66605C20.8469 8.93704 22.0185 12.086 24.3601 12.6992Z" fill="#E9D5CA"/>
</svg>
